<mxfile host="app.diagrams.net" modified="2023-01-20T02:34:24.608Z" agent="5.0 (Windows NT 10.0; Win64; x64) AppleWebKit/537.36 (KHTML, like Gecko) Chrome/109.0.0.0 Safari/537.36" etag="QswEV88Zl67QjPlqJ6XD" version="20.8.8" type="github">
  <diagram name="페이지-1" id="mF0qLBgoJcozapp97Shg">
    <mxGraphModel dx="932" dy="811" grid="1" gridSize="10" guides="1" tooltips="1" connect="1" arrows="1" fold="1" page="1" pageScale="1" pageWidth="827" pageHeight="1169" math="0" shadow="0">
      <root>
        <mxCell id="0" />
        <mxCell id="1" parent="0" />
        <mxCell id="ni-gSXAtjVL_gedkZ1gX-10" value="순차 구조" style="rounded=1;whiteSpace=wrap;html=1;absoluteArcSize=1;arcSize=14;strokeWidth=2;" vertex="1" parent="1">
          <mxGeometry x="80" y="80" width="120" height="40" as="geometry" />
        </mxCell>
        <mxCell id="ni-gSXAtjVL_gedkZ1gX-11" value="" style="verticalLabelPosition=bottom;verticalAlign=top;html=1;strokeWidth=2;shape=mxgraph.arrows2.arrow;dy=0.6;dx=40;notch=0;rotation=90;" vertex="1" parent="1">
          <mxGeometry x="41.25" y="223.75" width="197.5" height="70" as="geometry" />
        </mxCell>
        <mxCell id="ni-gSXAtjVL_gedkZ1gX-17" style="edgeStyle=orthogonalEdgeStyle;rounded=0;orthogonalLoop=1;jettySize=auto;html=1;exitX=0.5;exitY=1;exitDx=0;exitDy=0;exitPerimeter=0;entryX=0.5;entryY=0;entryDx=0;entryDy=0;" edge="1" parent="1" source="ni-gSXAtjVL_gedkZ1gX-12" target="ni-gSXAtjVL_gedkZ1gX-13">
          <mxGeometry relative="1" as="geometry" />
        </mxCell>
        <mxCell id="ni-gSXAtjVL_gedkZ1gX-12" value="시작" style="strokeWidth=2;html=1;shape=mxgraph.flowchart.start_1;whiteSpace=wrap;fillColor=#f5f5f5;fontColor=#333333;strokeColor=#666666;" vertex="1" parent="1">
          <mxGeometry x="80" y="400" width="120" height="40" as="geometry" />
        </mxCell>
        <mxCell id="ni-gSXAtjVL_gedkZ1gX-18" style="edgeStyle=orthogonalEdgeStyle;rounded=0;orthogonalLoop=1;jettySize=auto;html=1;exitX=0.5;exitY=1;exitDx=0;exitDy=0;entryX=0.5;entryY=0;entryDx=0;entryDy=0;" edge="1" parent="1" source="ni-gSXAtjVL_gedkZ1gX-13" target="ni-gSXAtjVL_gedkZ1gX-14">
          <mxGeometry relative="1" as="geometry" />
        </mxCell>
        <mxCell id="ni-gSXAtjVL_gedkZ1gX-13" value="처리1" style="rounded=1;whiteSpace=wrap;html=1;absoluteArcSize=1;arcSize=14;strokeWidth=2;" vertex="1" parent="1">
          <mxGeometry x="80" y="480" width="120" height="40" as="geometry" />
        </mxCell>
        <mxCell id="ni-gSXAtjVL_gedkZ1gX-19" style="edgeStyle=orthogonalEdgeStyle;rounded=0;orthogonalLoop=1;jettySize=auto;html=1;exitX=0.5;exitY=1;exitDx=0;exitDy=0;entryX=0.5;entryY=0;entryDx=0;entryDy=0;" edge="1" parent="1" source="ni-gSXAtjVL_gedkZ1gX-14" target="ni-gSXAtjVL_gedkZ1gX-15">
          <mxGeometry relative="1" as="geometry" />
        </mxCell>
        <mxCell id="ni-gSXAtjVL_gedkZ1gX-14" value="처리2" style="rounded=1;whiteSpace=wrap;html=1;absoluteArcSize=1;arcSize=14;strokeWidth=2;" vertex="1" parent="1">
          <mxGeometry x="80" y="560" width="120" height="40" as="geometry" />
        </mxCell>
        <mxCell id="ni-gSXAtjVL_gedkZ1gX-20" style="edgeStyle=orthogonalEdgeStyle;rounded=0;orthogonalLoop=1;jettySize=auto;html=1;exitX=0.5;exitY=1;exitDx=0;exitDy=0;entryX=0.5;entryY=0;entryDx=0;entryDy=0;entryPerimeter=0;" edge="1" parent="1" source="ni-gSXAtjVL_gedkZ1gX-15" target="ni-gSXAtjVL_gedkZ1gX-16">
          <mxGeometry relative="1" as="geometry" />
        </mxCell>
        <mxCell id="ni-gSXAtjVL_gedkZ1gX-15" value="처리3" style="rounded=1;whiteSpace=wrap;html=1;absoluteArcSize=1;arcSize=14;strokeWidth=2;" vertex="1" parent="1">
          <mxGeometry x="80" y="640" width="120" height="40" as="geometry" />
        </mxCell>
        <mxCell id="ni-gSXAtjVL_gedkZ1gX-16" value="종료" style="strokeWidth=2;html=1;shape=mxgraph.flowchart.start_1;whiteSpace=wrap;fillColor=#f5f5f5;fontColor=#333333;strokeColor=#666666;" vertex="1" parent="1">
          <mxGeometry x="80" y="720" width="120" height="40" as="geometry" />
        </mxCell>
        <mxCell id="ni-gSXAtjVL_gedkZ1gX-21" value="선택 구조" style="rounded=1;whiteSpace=wrap;html=1;absoluteArcSize=1;arcSize=14;strokeWidth=2;" vertex="1" parent="1">
          <mxGeometry x="359.98" y="80" width="120" height="40" as="geometry" />
        </mxCell>
        <mxCell id="ni-gSXAtjVL_gedkZ1gX-22" value="" style="verticalLabelPosition=bottom;verticalAlign=top;html=1;strokeWidth=2;shape=mxgraph.arrows2.arrow;dy=0.6;dx=40;notch=0;rotation=90;" vertex="1" parent="1">
          <mxGeometry x="381.07000000000005" y="165.46" width="77.81" height="66.88" as="geometry" />
        </mxCell>
        <mxCell id="ni-gSXAtjVL_gedkZ1gX-23" value="" style="verticalLabelPosition=bottom;verticalAlign=top;html=1;strokeWidth=2;shape=mxgraph.arrows2.arrow;dy=0.6;dx=40;notch=0;rotation=120;" vertex="1" parent="1">
          <mxGeometry x="300" y="260.1" width="141.91" height="66.88" as="geometry" />
        </mxCell>
        <mxCell id="ni-gSXAtjVL_gedkZ1gX-24" value="" style="verticalLabelPosition=bottom;verticalAlign=top;html=1;strokeWidth=2;shape=mxgraph.arrows2.arrow;dy=0.6;dx=40;notch=0;rotation=60;" vertex="1" parent="1">
          <mxGeometry x="397.05" y="261.83" width="145.91" height="66.88" as="geometry" />
        </mxCell>
        <mxCell id="ni-gSXAtjVL_gedkZ1gX-25" style="edgeStyle=orthogonalEdgeStyle;rounded=0;orthogonalLoop=1;jettySize=auto;html=1;exitX=0.5;exitY=1;exitDx=0;exitDy=0;exitPerimeter=0;entryX=0.5;entryY=0;entryDx=0;entryDy=0;" edge="1" parent="1" source="ni-gSXAtjVL_gedkZ1gX-26" target="ni-gSXAtjVL_gedkZ1gX-28">
          <mxGeometry relative="1" as="geometry" />
        </mxCell>
        <mxCell id="ni-gSXAtjVL_gedkZ1gX-26" value="시작" style="strokeWidth=2;html=1;shape=mxgraph.flowchart.start_1;whiteSpace=wrap;fillColor=#f5f5f5;fontColor=#333333;strokeColor=#666666;" vertex="1" parent="1">
          <mxGeometry x="280" y="400" width="120" height="40" as="geometry" />
        </mxCell>
        <mxCell id="ni-gSXAtjVL_gedkZ1gX-35" style="edgeStyle=orthogonalEdgeStyle;rounded=0;orthogonalLoop=1;jettySize=auto;html=1;exitX=0.5;exitY=1;exitDx=0;exitDy=0;entryX=0.5;entryY=0;entryDx=0;entryDy=0;entryPerimeter=0;" edge="1" parent="1" source="ni-gSXAtjVL_gedkZ1gX-28" target="ni-gSXAtjVL_gedkZ1gX-34">
          <mxGeometry relative="1" as="geometry" />
        </mxCell>
        <mxCell id="ni-gSXAtjVL_gedkZ1gX-28" value="처리1" style="rounded=1;whiteSpace=wrap;html=1;absoluteArcSize=1;arcSize=14;strokeWidth=2;" vertex="1" parent="1">
          <mxGeometry x="280" y="480" width="120" height="40" as="geometry" />
        </mxCell>
        <mxCell id="ni-gSXAtjVL_gedkZ1gX-31" style="edgeStyle=orthogonalEdgeStyle;rounded=0;orthogonalLoop=1;jettySize=auto;html=1;exitX=0.5;exitY=1;exitDx=0;exitDy=0;entryX=0.5;entryY=0;entryDx=0;entryDy=0;entryPerimeter=0;" edge="1" parent="1" source="ni-gSXAtjVL_gedkZ1gX-32" target="ni-gSXAtjVL_gedkZ1gX-33">
          <mxGeometry relative="1" as="geometry" />
        </mxCell>
        <mxCell id="ni-gSXAtjVL_gedkZ1gX-32" value="처리2" style="rounded=1;whiteSpace=wrap;html=1;absoluteArcSize=1;arcSize=14;strokeWidth=2;" vertex="1" parent="1">
          <mxGeometry x="280" y="640" width="120" height="40" as="geometry" />
        </mxCell>
        <mxCell id="ni-gSXAtjVL_gedkZ1gX-33" value="종료" style="strokeWidth=2;html=1;shape=mxgraph.flowchart.start_1;whiteSpace=wrap;fillColor=#f5f5f5;fontColor=#333333;strokeColor=#666666;" vertex="1" parent="1">
          <mxGeometry x="280" y="720" width="120" height="40" as="geometry" />
        </mxCell>
        <mxCell id="ni-gSXAtjVL_gedkZ1gX-36" value="no" style="edgeStyle=orthogonalEdgeStyle;rounded=0;orthogonalLoop=1;jettySize=auto;html=1;exitX=1;exitY=0.5;exitDx=0;exitDy=0;exitPerimeter=0;entryX=0.5;entryY=0;entryDx=0;entryDy=0;" edge="1" parent="1" source="ni-gSXAtjVL_gedkZ1gX-34" target="ni-gSXAtjVL_gedkZ1gX-52">
          <mxGeometry x="0.2502" relative="1" as="geometry">
            <mxPoint as="offset" />
          </mxGeometry>
        </mxCell>
        <mxCell id="ni-gSXAtjVL_gedkZ1gX-37" value="yes" style="edgeStyle=orthogonalEdgeStyle;rounded=0;orthogonalLoop=1;jettySize=auto;html=1;exitX=0.5;exitY=1;exitDx=0;exitDy=0;exitPerimeter=0;entryX=0.5;entryY=0;entryDx=0;entryDy=0;" edge="1" parent="1" source="ni-gSXAtjVL_gedkZ1gX-34" target="ni-gSXAtjVL_gedkZ1gX-32">
          <mxGeometry x="0.2498" relative="1" as="geometry">
            <mxPoint as="offset" />
          </mxGeometry>
        </mxCell>
        <mxCell id="ni-gSXAtjVL_gedkZ1gX-34" value="조건식" style="strokeWidth=2;html=1;shape=mxgraph.flowchart.decision;whiteSpace=wrap;fillColor=#e1d5e7;strokeColor=#9673a6;" vertex="1" parent="1">
          <mxGeometry x="280" y="560" width="120" height="40" as="geometry" />
        </mxCell>
        <mxCell id="ni-gSXAtjVL_gedkZ1gX-38" value="선택 구조" style="rounded=1;whiteSpace=wrap;html=1;absoluteArcSize=1;arcSize=14;strokeWidth=2;" vertex="1" parent="1">
          <mxGeometry x="639.98" y="80" width="120" height="40" as="geometry" />
        </mxCell>
        <mxCell id="ni-gSXAtjVL_gedkZ1gX-42" style="edgeStyle=orthogonalEdgeStyle;rounded=0;orthogonalLoop=1;jettySize=auto;html=1;exitX=0.5;exitY=1;exitDx=0;exitDy=0;exitPerimeter=0;entryX=0.5;entryY=0;entryDx=0;entryDy=0;" edge="1" parent="1" source="ni-gSXAtjVL_gedkZ1gX-43">
          <mxGeometry relative="1" as="geometry">
            <mxPoint x="699.98" y="480" as="targetPoint" />
          </mxGeometry>
        </mxCell>
        <mxCell id="ni-gSXAtjVL_gedkZ1gX-43" value="시작" style="strokeWidth=2;html=1;shape=mxgraph.flowchart.start_1;whiteSpace=wrap;fillColor=#f5f5f5;fontColor=#333333;strokeColor=#666666;" vertex="1" parent="1">
          <mxGeometry x="639.98" y="400" width="120" height="40" as="geometry" />
        </mxCell>
        <mxCell id="ni-gSXAtjVL_gedkZ1gX-46" style="edgeStyle=orthogonalEdgeStyle;rounded=0;orthogonalLoop=1;jettySize=auto;html=1;exitX=0.5;exitY=1;exitDx=0;exitDy=0;entryX=0.5;entryY=0;entryDx=0;entryDy=0;entryPerimeter=0;" edge="1" parent="1" source="ni-gSXAtjVL_gedkZ1gX-47" target="ni-gSXAtjVL_gedkZ1gX-48">
          <mxGeometry relative="1" as="geometry" />
        </mxCell>
        <mxCell id="ni-gSXAtjVL_gedkZ1gX-47" value="처리2" style="rounded=1;whiteSpace=wrap;html=1;absoluteArcSize=1;arcSize=14;strokeWidth=2;" vertex="1" parent="1">
          <mxGeometry x="639.98" y="640" width="120" height="40" as="geometry" />
        </mxCell>
        <mxCell id="ni-gSXAtjVL_gedkZ1gX-48" value="종료" style="strokeWidth=2;html=1;shape=mxgraph.flowchart.start_1;whiteSpace=wrap;fillColor=#f5f5f5;fontColor=#333333;strokeColor=#666666;" vertex="1" parent="1">
          <mxGeometry x="639.98" y="720" width="120" height="40" as="geometry" />
        </mxCell>
        <mxCell id="ni-gSXAtjVL_gedkZ1gX-67" style="edgeStyle=orthogonalEdgeStyle;rounded=0;orthogonalLoop=1;jettySize=auto;html=1;exitX=0.5;exitY=1;exitDx=0;exitDy=0;" edge="1" parent="1" source="ni-gSXAtjVL_gedkZ1gX-52">
          <mxGeometry relative="1" as="geometry">
            <mxPoint x="340" y="700" as="targetPoint" />
            <Array as="points">
              <mxPoint x="500" y="700" />
            </Array>
          </mxGeometry>
        </mxCell>
        <mxCell id="ni-gSXAtjVL_gedkZ1gX-52" value="처리3" style="rounded=1;whiteSpace=wrap;html=1;absoluteArcSize=1;arcSize=14;strokeWidth=2;" vertex="1" parent="1">
          <mxGeometry x="440" y="640" width="120" height="40" as="geometry" />
        </mxCell>
        <mxCell id="ni-gSXAtjVL_gedkZ1gX-54" value="반복문" style="strokeWidth=2;html=1;shape=mxgraph.flowchart.loop_limit;whiteSpace=wrap;fillColor=#fff2cc;strokeColor=#d6b656;" vertex="1" parent="1">
          <mxGeometry x="639.98" y="480" width="120" height="20" as="geometry" />
        </mxCell>
        <mxCell id="ni-gSXAtjVL_gedkZ1gX-55" value="반복 처리" style="rounded=1;whiteSpace=wrap;html=1;absoluteArcSize=1;arcSize=14;strokeWidth=2;fillColor=#fff2cc;strokeColor=#d6b656;" vertex="1" parent="1">
          <mxGeometry x="639.98" y="520" width="120" height="40" as="geometry" />
        </mxCell>
        <mxCell id="ni-gSXAtjVL_gedkZ1gX-58" style="edgeStyle=orthogonalEdgeStyle;rounded=0;orthogonalLoop=1;jettySize=auto;html=1;exitX=0.5;exitY=0;exitDx=0;exitDy=0;exitPerimeter=0;entryX=0.5;entryY=0;entryDx=0;entryDy=0;" edge="1" parent="1" source="ni-gSXAtjVL_gedkZ1gX-56" target="ni-gSXAtjVL_gedkZ1gX-47">
          <mxGeometry relative="1" as="geometry" />
        </mxCell>
        <mxCell id="ni-gSXAtjVL_gedkZ1gX-56" value="" style="strokeWidth=2;html=1;shape=mxgraph.flowchart.loop_limit;whiteSpace=wrap;rotation=-180;fillColor=#fff2cc;strokeColor=#d6b656;" vertex="1" parent="1">
          <mxGeometry x="639.98" y="580" width="120" height="20" as="geometry" />
        </mxCell>
        <mxCell id="ni-gSXAtjVL_gedkZ1gX-62" value="" style="verticalLabelPosition=bottom;verticalAlign=top;html=1;strokeWidth=2;shape=mxgraph.arrows2.arrow;dy=0.6;dx=40;notch=0;rotation=0;" vertex="1" parent="1">
          <mxGeometry x="685.62" y="280.1" width="62.19" height="26.88" as="geometry" />
        </mxCell>
        <mxCell id="ni-gSXAtjVL_gedkZ1gX-63" value="" style="verticalLabelPosition=bottom;verticalAlign=top;html=1;strokeWidth=2;shape=mxgraph.arrows2.arrow;dy=0.6;dx=40;notch=0;rotation=-90;" vertex="1" parent="1">
          <mxGeometry x="730" y="253.22000000000003" width="62.19" height="26.88" as="geometry" />
        </mxCell>
        <mxCell id="ni-gSXAtjVL_gedkZ1gX-64" value="" style="verticalLabelPosition=bottom;verticalAlign=top;html=1;strokeWidth=2;shape=mxgraph.arrows2.arrow;dy=0.6;dx=40;notch=0;rotation=-180;" vertex="1" parent="1">
          <mxGeometry x="685.6199999999999" y="223.75000000000003" width="62.19" height="26.88" as="geometry" />
        </mxCell>
        <mxCell id="ni-gSXAtjVL_gedkZ1gX-65" value="" style="verticalLabelPosition=bottom;verticalAlign=top;html=1;strokeWidth=2;shape=mxgraph.arrows2.arrow;dy=0.6;dx=40;notch=0;rotation=90;" vertex="1" parent="1">
          <mxGeometry x="628.91" y="293.75" width="60" height="66.88" as="geometry" />
        </mxCell>
        <mxCell id="ni-gSXAtjVL_gedkZ1gX-68" value="" style="verticalLabelPosition=bottom;verticalAlign=top;html=1;strokeWidth=2;shape=mxgraph.arrows2.arrow;dy=0.6;dx=40;notch=0;rotation=90;" vertex="1" parent="1">
          <mxGeometry x="628.91" y="223.75" width="60" height="66.88" as="geometry" />
        </mxCell>
        <mxCell id="ni-gSXAtjVL_gedkZ1gX-69" value="" style="verticalLabelPosition=bottom;verticalAlign=top;html=1;strokeWidth=2;shape=mxgraph.arrows2.arrow;dy=0.6;dx=40;notch=0;rotation=90;" vertex="1" parent="1">
          <mxGeometry x="628.91" y="156.87" width="60" height="66.88" as="geometry" />
        </mxCell>
        <mxCell id="ni-gSXAtjVL_gedkZ1gX-70" style="edgeStyle=orthogonalEdgeStyle;rounded=0;orthogonalLoop=1;jettySize=auto;html=1;exitX=0.5;exitY=1;exitDx=0;exitDy=0;exitPerimeter=0;entryX=0.5;entryY=0;entryDx=0;entryDy=0;" edge="1" parent="1" source="ni-gSXAtjVL_gedkZ1gX-71" target="ni-gSXAtjVL_gedkZ1gX-73">
          <mxGeometry relative="1" as="geometry" />
        </mxCell>
        <mxCell id="ni-gSXAtjVL_gedkZ1gX-71" value="시작" style="strokeWidth=2;html=1;shape=mxgraph.flowchart.start_1;whiteSpace=wrap;fillColor=#f5f5f5;fontColor=#333333;strokeColor=#666666;" vertex="1" parent="1">
          <mxGeometry x="800" y="400" width="120" height="40" as="geometry" />
        </mxCell>
        <mxCell id="ni-gSXAtjVL_gedkZ1gX-72" style="edgeStyle=orthogonalEdgeStyle;rounded=0;orthogonalLoop=1;jettySize=auto;html=1;exitX=0.5;exitY=1;exitDx=0;exitDy=0;entryX=0.5;entryY=0;entryDx=0;entryDy=0;entryPerimeter=0;" edge="1" parent="1" source="ni-gSXAtjVL_gedkZ1gX-73" target="ni-gSXAtjVL_gedkZ1gX-79">
          <mxGeometry relative="1" as="geometry" />
        </mxCell>
        <mxCell id="ni-gSXAtjVL_gedkZ1gX-73" value="처리1" style="rounded=1;whiteSpace=wrap;html=1;absoluteArcSize=1;arcSize=14;strokeWidth=2;" vertex="1" parent="1">
          <mxGeometry x="800" y="480" width="120" height="40" as="geometry" />
        </mxCell>
        <mxCell id="ni-gSXAtjVL_gedkZ1gX-74" style="edgeStyle=orthogonalEdgeStyle;rounded=0;orthogonalLoop=1;jettySize=auto;html=1;exitX=0.5;exitY=1;exitDx=0;exitDy=0;entryX=0.5;entryY=0;entryDx=0;entryDy=0;entryPerimeter=0;" edge="1" parent="1" source="ni-gSXAtjVL_gedkZ1gX-75" target="ni-gSXAtjVL_gedkZ1gX-76">
          <mxGeometry relative="1" as="geometry" />
        </mxCell>
        <mxCell id="ni-gSXAtjVL_gedkZ1gX-75" value="처리2" style="rounded=1;whiteSpace=wrap;html=1;absoluteArcSize=1;arcSize=14;strokeWidth=2;" vertex="1" parent="1">
          <mxGeometry x="800" y="640" width="120" height="40" as="geometry" />
        </mxCell>
        <mxCell id="ni-gSXAtjVL_gedkZ1gX-76" value="종료" style="strokeWidth=2;html=1;shape=mxgraph.flowchart.start_1;whiteSpace=wrap;fillColor=#f5f5f5;fontColor=#333333;strokeColor=#666666;" vertex="1" parent="1">
          <mxGeometry x="800" y="720" width="120" height="40" as="geometry" />
        </mxCell>
        <mxCell id="ni-gSXAtjVL_gedkZ1gX-77" value="no" style="edgeStyle=orthogonalEdgeStyle;rounded=0;orthogonalLoop=1;jettySize=auto;html=1;exitX=1;exitY=0.5;exitDx=0;exitDy=0;exitPerimeter=0;" edge="1" parent="1" source="ni-gSXAtjVL_gedkZ1gX-79">
          <mxGeometry x="-0.2727" relative="1" as="geometry">
            <mxPoint as="offset" />
            <mxPoint x="860" y="460" as="targetPoint" />
            <Array as="points">
              <mxPoint x="940" y="580" />
              <mxPoint x="940" y="460" />
            </Array>
          </mxGeometry>
        </mxCell>
        <mxCell id="ni-gSXAtjVL_gedkZ1gX-78" value="yes" style="edgeStyle=orthogonalEdgeStyle;rounded=0;orthogonalLoop=1;jettySize=auto;html=1;exitX=0.5;exitY=1;exitDx=0;exitDy=0;exitPerimeter=0;entryX=0.5;entryY=0;entryDx=0;entryDy=0;" edge="1" parent="1" source="ni-gSXAtjVL_gedkZ1gX-79" target="ni-gSXAtjVL_gedkZ1gX-75">
          <mxGeometry x="0.2498" relative="1" as="geometry">
            <mxPoint as="offset" />
          </mxGeometry>
        </mxCell>
        <mxCell id="ni-gSXAtjVL_gedkZ1gX-79" value="조건식" style="strokeWidth=2;html=1;shape=mxgraph.flowchart.decision;whiteSpace=wrap;fillColor=#e1d5e7;strokeColor=#9673a6;" vertex="1" parent="1">
          <mxGeometry x="800" y="560" width="120" height="40" as="geometry" />
        </mxCell>
      </root>
    </mxGraphModel>
  </diagram>
</mxfile>
